<svg xmlns="http://www.w3.org/2000/svg" fill="none" viewBox="0 0 48 48"><path fill="#000" fill-rule="evenodd" d="M39.71 27.524a.77.77 0 00-.865-.655l.096.75-.096-.75-.006.001-.017.002-.066.008-.255.032-.947.12c-.803.102-1.925.247-3.195.416-2.539.338-5.682.777-8.078 1.176-2.396.399-5.374.979-7.748 1.457-1.188.24-2.227.455-2.97.61-.37.078-.493.033-.697.076l-.234.05-.08.017c.154.719.003 0 .003 0s.007.051-.004 0c-.418.09-.746.214-.655.622a.774.774 0 00.921.576l.005-.001.076-.016.232-.05a374.527 374.527 0 013.827-.79c2.37-.477 5.327-1.053 7.695-1.447 2.37-.394 5.491-.83 8.027-1.168a536.776 536.776 0 014.129-.534l.254-.032.066-.008.016-.002h.004s-.11.384-.207-.365l.207.364c.424-.052.615-.045.562-.459z" clip-rule="evenodd"/><path fill="#000" d="M5.83 34.47c-.676.121-1.254.018-1.735-.31-.493-.31-.796-.794-.909-1.45a2.548 2.548 0 01-.008-.575c.003-.246.06-.487.17-.722a.88.88 0 01.56-.446l.023.134c.08.462.245.762.496.901.251.14.516.184.796.134.44-.08.82-.287 1.142-.621a4.84 4.84 0 00.815-1.069c.288-.528.561-1.138.82-1.83.274-.695.522-1.408.745-2.14.234-.749.435-1.469.604-2.16.18-.708.337-1.336.47-1.882.13-.562.223-.993.277-1.295.099-.479.24-1.065.423-1.759.198-.696.426-1.398.682-2.105.27-.724.56-1.36.875-1.91.312-.562.64-.944.984-1.145-.248-.032-.564-.02-.949.033-.372.037-.742.088-1.109.154-.308.056-.594.115-.855.177-.25.045-.446.096-.587.152a12.16 12.16 0 00-1.939.88 8.753 8.753 0 00-1.66 1.175c-.445.403-.7.81-.766 1.221-.007.048-.033.075-.077.083-.132.024-.216-.068-.252-.277a.732.732 0 01.01-.21 4.84 4.84 0 01.307-1.115c.154-.335.316-.625.486-.871.397-.594.888-.998 1.472-1.21a10.05 10.05 0 011.886-.525l1.036-.186 4.96-.872c-.396.425-.732.8-1.01 1.127a7.77 7.77 0 00-.69 1 6.276 6.276 0 00-.502 1.174c-.15.442-.297.999-.439 1.67a50.072 50.072 0 00-.462 2.457 97.747 97.747 0 00-.318 2.109c-.11.85-.259 1.79-.444 2.823a30.174 30.174 0 01-.697 3.075 17.394 17.394 0 01-1.05 2.863c-.408.888-.908 1.631-1.502 2.23-.593.599-1.286.97-2.08 1.112zM20.833 27.985c-.456.082-.802-.04-1.04-.366-.224-.328-.38-.753-.47-1.275a7.615 7.615 0 01-.11-1.432l.023-.65c.02-.234.047-.477.08-.728-.17.507-.358 1.001-.563 1.484a9.24 9.24 0 01-.618 1.287 8.311 8.311 0 01-1.248 1.723c-.447.48-.928.766-1.442.859a1.445 1.445 0 01-1.134-.256c-.333-.263-.566-.774-.697-1.534a7.907 7.907 0 01-.015-2.464c.123-.867.359-1.693.708-2.478.361-.803.828-1.479 1.4-2.027a3.957 3.957 0 012.047-1.038c.25-.045.528-.057.834-.035.307.022.603.114.889.278.283.149.5.394.65.736a.268.268 0 01.032-.075.264.264 0 00.058-.057c.15-.365.337-.683.563-.954.225-.271.5-.436.823-.495.162-.029.39-.062.687-.1.296-.038.51-.077.639-.115-.063.072-.146.21-.247.413-.087.2-.165.406-.234.618l-.17.469c-.262.846-.49 1.678-.682 2.497a15.233 15.233 0 00-.371 2.325 2.474 2.474 0 00-.015.44c.006.123.02.243.04.363.066.387.225.558.474.513.235-.042.503-.244.805-.606.442-.51.8-1.112 1.074-1.807.288-.697.53-1.363.723-1.997.04-.115.083-.176.127-.184.088-.016.154.102.198.356.02.12.021.257.003.414-.003.154-.03.305-.08.453-.145.394-.34.883-.589 1.466-.233.58-.511 1.16-.835 1.74a8.102 8.102 0 01-1.084 1.487c-.382.422-.793.672-1.233.752zm-4.72-1.154a.67.67 0 00.202-.014c.28-.05.56-.224.842-.52.282-.297.552-.66.811-1.091.256-.446.476-.885.659-1.318.466-1.16.809-2.028 1.027-2.605l.375-.99c-.117-.24-.282-.402-.493-.487a1.126 1.126 0 00-.67-.064c-.323.059-.653.21-.99.455a3.532 3.532 0 00-.79.812c-.316.456-.597 1.021-.844 1.696a13.531 13.531 0 00-.525 1.961c-.103.633-.12 1.151-.05 1.553.064.373.213.577.446.612z"/><path fill="#000" d="M26.31 26.997c-.425.077-.778-.036-1.057-.339a1.716 1.716 0 01-.32-.542 3.616 3.616 0 01-.186-.68 5.945 5.945 0 01-.08-.724c-.014-.258-.02-.51-.017-.757.007-.401.027-.766.062-1.095.046-.346.095-.677.146-.994l-.004-.022a9.142 9.142 0 01-.313.817 13.83 13.83 0 00-.278.626c-.075.183-.142.28-.2.29-.059.01-.1-.052-.123-.186-.052-.298-.02-.641.095-1.03.076-.26.185-.595.326-1.005.14-.424.28-.88.423-1.367.144-.486.26-.953.35-1.4l-1.477.267c-.073.013-.098-.044-.074-.171.023-.127.07-.251.14-.371.068-.135.123-.207.168-.215l1.674-.302c.095-.416.206-.867.335-1.35.143-.487.314-.948.511-1.384.21-.452.454-.834.734-1.146.28-.312.602-.5.97-.567l.595-.107c.25-.045.402-.08.458-.106-.272.265-.56.747-.863 1.447-.306.685-.603 1.645-.89 2.88l2.226-.401c.044-.008.04.054-.013.186a2.787 2.787 0 01-.229.387c-.082.138-.175.216-.278.235l-1.894.341c-.107.526-.227 1.101-.362 1.725-.12.62-.226 1.232-.32 1.832a13.353 13.353 0 00-.134 1.592c-.01.294.005.56.046.798.098.566.323.818.676.754.235-.042.493-.212.775-.508.282-.297.549-.683.8-1.159.227-.44.434-.908.621-1.402.202-.498.367-.95.493-1.357.041-.115.084-.176.128-.184.088-.016.152.095.194.334.02.119.023.264.007.436a1.447 1.447 0 01-.1.48c-.143.394-.318.832-.522 1.315-.207.467-.422.936-.644 1.407-.159.305-.378.66-.657 1.063a6.207 6.207 0 01-.903 1.085c-.324.32-.662.51-1.014.574z"/><path fill="#000" d="M32.964 14.597c-.405-.066-.64-.285-.703-.657-.06-.343.012-.717.215-1.122.215-.423.475-.716.78-.878a.515.515 0 01.168-.077l.177-.032a.883.883 0 01.655.113c.187.12.298.276.331.47.046.268-.055.517-.303.746-.225.01-.43.1-.612.272a2.541 2.541 0 00-.466.59c-.113.221-.194.412-.242.575zm-1.916 11.546c-.19.035-.382.023-.574-.035-.189-.042-.363-.172-.521-.39-.223-.328-.377-.738-.462-1.23a7.66 7.66 0 01-.066-1.832c.046-.7.14-1.423.284-2.171.06-.272.137-.61.235-1.01.097-.402.224-.81.38-1.222.156-.412.353-.762.59-1.051.25-.307.545-.49.883-.551.161-.03.39-.063.686-.1.297-.039.51-.077.64-.116-.078.076-.16.213-.247.413-.087.2-.165.406-.234.619-.073.197-.129.353-.17.468a65.655 65.655 0 00-.682 2.497 13.862 13.862 0 00-.393 2.33 3.106 3.106 0 00.03.709c.075.432.252.623.531.572a.935.935 0 00.36-.157 3.32 3.32 0 00.448-.426 4.83 4.83 0 00.724-1.076c.226-.44.435-.9.625-1.38.187-.495.344-.946.47-1.353.054-.132.095-.2.124-.206.088-.016.154.103.198.356.02.12.023.265.007.437-.004.154-.03.305-.081.452-.144.395-.318.833-.523 1.316-.204.482-.419.951-.643 1.407-.157.32-.375.682-.654 1.085a6.953 6.953 0 01-.925 1.09c-.34.306-.687.492-1.04.555z"/><path fill="#000" d="M40.65 24.413c-.5.09-.87.003-1.113-.26a2.166 2.166 0 01-.45-1.026c-.084-.492-.09-1.098-.018-1.818.07-.735.17-1.475.3-2.22a761.1 761.1 0 01.377-2.027c.035-.145.04-.292.014-.44-.028-.165-.1-.275-.215-.33a.667.667 0 00-.416-.04c-.235.042-.487.164-.755.366-.414.32-.782.778-1.103 1.374a7.752 7.752 0 00-.71 1.81 26.517 26.517 0 00-.418 2.058c-.11.68-.196 1.234-.259 1.66-.044.27-.08.544-.107.826a56.55 56.55 0 01-.086.822l-2.137.385.058-.586c.024-.389.077-.782.16-1.181l.41-2.103a84.47 84.47 0 00.382-1.866c.033-.16.074-.451.122-.875.06-.441.103-.895.129-1.36.04-.468.036-.844-.013-1.127-.028-.164-.07-.272-.124-.323l.44-.08c.175-.047.335-.083.482-.11.205-.037.398-.064.576-.08.194-.02.325-.005.394.044.2.102.321.28.365.533.03.179.025.364-.018.556-.028.19-.046.347-.055.471.172-.23.353-.455.543-.674.19-.218.487-.51.894-.875.236-.212.543-.405.922-.581.378-.176.73-.293 1.052-.351.837-.151 1.324.168 1.46.958.024.134.035.286.033.455.014.166 0 .353-.04.56-.032.252-.093.6-.182 1.047-.09.447-.182.924-.276 1.433-.081.49-.145.956-.19 1.394-.046.439-.047.784-.004 1.038.062.357.225.512.49.465.234-.043.502-.245.804-.606.289-.344.53-.703.723-1.075.242-.444.45-.904.625-1.38.187-.495.344-.946.471-1.353.053-.133.094-.202.123-.207.089-.016.154.103.198.356.02.12.023.265.007.437-.003.154-.03.305-.08.452-.145.395-.319.834-.523 1.316-.205.483-.42.952-.644 1.407-.157.32-.374.682-.653 1.086a6.958 6.958 0 01-.925 1.088c-.341.308-.688.493-1.04.556z"/></svg>